<?xml version="1.0" encoding="utf-8"?>
<!-- Generator: Adobe Illustrator 16.0.4, SVG Export Plug-In . SVG Version: 6.00 Build 0)  -->
<!DOCTYPE svg PUBLIC "-//W3C//DTD SVG 1.1//EN" "http://www.w3.org/Graphics/SVG/1.1/DTD/svg11.dtd">
<svg version="1.1" id="Layer_1" xmlns="http://www.w3.org/2000/svg" xmlns:xlink="http://www.w3.org/1999/xlink" x="0px" y="0px"
	 width="350px" height="287px" viewBox="0 0 350 287" enable-background="new 0 0 350 287" xml:space="preserve">
<path fill="#565AA8" d="M-89.81-267.328H-347.05c-14.332,0-25.949,11.272-25.949,25.179v140.837c0,13.905,11.618,25.18,25.949,25.18
	h170.744v39.59l56.223-39.59h30.273c14.332,0,25.95-11.274,25.95-25.18v-140.837C-63.859-256.056-75.478-267.328-89.81-267.328z
	 M-96.25-115.088h-247.247v-8H-96.25V-115.088z M-96.25-141.324h-247.247v-8H-96.25V-141.324z M-96.25-167.56h-247.247v-8H-96.25
	V-167.56z M-96.25-195.56h-247.247v-8H-96.25V-195.56z"/>
<g>
	<g>
		<rect x="-129" y="-271.9" fill="#E24C91" width="71.334" height="71.333"/>
	</g>
	<g>
		
			<rect x="-129" y="-271.9" transform="matrix(0.309 -0.9511 0.9511 0.309 160.1792 -251.9986)" fill="#E24C91" width="71.333" height="71.334"/>
	</g>
	<g>
		
			<rect x="-129" y="-271.9" transform="matrix(0.5878 -0.809 0.809 0.5878 152.6429 -172.8863)" fill="#E24C91" width="71.333" height="71.334"/>
	</g>
	<g>
		
			<rect x="-129" y="-271.9" transform="matrix(0.809 -0.5878 0.5878 0.809 121.0284 -99.9753)" fill="#E24C91" width="71.333" height="71.334"/>
	</g>
	<g>
		
			<rect x="-129" y="-271.9" transform="matrix(0.9511 -0.309 0.309 0.9511 68.4316 -40.4034)" fill="#E24C91" width="71.333" height="71.334"/>
	</g>
	<g>
		<rect x="-129" y="-271.9" fill="#E24C91" width="71.333" height="71.333"/>
	</g>
</g>
<path fill="#2D2D2D" d="M123.604-283.182v13.818h-13.818v192.3h13.818v-13.817h13.817v13.817h-13.816v13.818H96.501v-10.275H96.5
	V-297h13.286v13.818H123.604z M123.604-269.364v13.818h13.817v-13.818H123.604z M137.422-255.546v13.818h13.818v-13.818H137.422z
	 M151.24-241.728v13.818h13.818v-13.818H151.24z M165.059-227.91v13.818h13.817v-13.818H165.059z M178.876-214.092v13.818h13.818
	v-13.818H178.876z M192.694-200.274v13.818h13.817v-13.818H192.694z M206.512-186.457v13.818h13.818v-13.818H206.512z
	 M220.33-172.639v13.818h13.818v-13.818H220.33z M234.148-158.821v13.818h13.817v-13.818H234.148z M247.966-132.069h-41.454h-13.817
	v13.818v13.641h13.817v-13.641h55.272v-12.934v-0.885v-12.933h-13.818V-132.069z M220.33-77.152v-27.458h-13.818v27.458H220.33z
	 M234.148-49.694v-27.458H220.33v27.458H234.148z M166.121-104.61v27.458h13.818v-27.458H166.121z M179.939-77.152v27.458h13.817
	v-27.458H179.939z M193.757-35.875h26.573v-13.819h-26.573V-35.875z M165.059-118.518H151.24v13.817h13.818V-118.518z M151.24-104.7
	h-13.818v13.818h13.818V-104.7z"/>
<path fill="#FFFFFF" d="M123.604,29.818v13.817h-13.818v192.3h13.818v-13.817h13.817v13.817h-13.816v13.818H96.501v-10.275H96.5V16
	h13.286v13.818H123.604z M123.604,43.636v13.817h13.817V43.636H123.604z M137.422,57.453v13.818h13.818V57.453H137.422z
	 M151.24,71.271V85.09h13.818V71.271H151.24z M165.059,85.09v13.818h13.817V85.09H165.059z M178.876,98.908v13.817h13.818V98.908
	H178.876z M192.694,112.726v13.817h13.817v-13.817H192.694z M206.512,126.543v13.818h13.818v-13.818H206.512z M220.33,140.361
	v13.818h13.818v-13.818H220.33z M234.148,154.18v13.818h13.817V154.18H234.148z M247.966,180.931h-41.454h-13.817v13.818v13.641
	h13.817v-13.641h55.272v-12.934v-0.885v-12.933h-13.818V180.931z M220.33,235.848V208.39h-13.818v27.458H220.33z M234.148,263.306
	v-27.458H220.33v27.458H234.148z M166.121,208.39v27.458h13.818V208.39H166.121z M179.939,235.848v27.458h13.817v-27.458H179.939z
	 M193.757,277.125h26.573v-13.819h-26.573V277.125z M165.059,194.482H151.24V208.3h13.818V194.482z M151.24,208.3h-13.818v13.818
	h13.818V208.3z"/>
<g>
	<path fill="#6CC393" d="M724-82.32c0,10.209-8.57,18.484-19.142,18.484H453.142C442.57-63.836,434-72.111,434-82.32V-252.68
		c0-10.209,8.57-18.484,19.142-18.484h251.717c10.571,0,19.142,8.275,19.142,18.484V-82.32z"/>
	<rect x="434" y="-212" fill="#565AA8" width="290" height="106.574"/>
	<path fill="#6A7CBC" d="M622.891-201.143c23.827,23.826,23.828,62.457,0.001,86.284c-23.827,23.826-62.458,23.826-86.284-0.001
		L622.891-201.143z"/>
	<circle fill="none" stroke="#FFFFFF" stroke-width="16" stroke-miterlimit="10" cx="583.32" cy="-157.936" r="61.012"/>
	<circle fill="#E24C91" cx="460.667" cy="-247.333" r="15.333"/>
	<path fill="#FFFFFF" d="M714-247.333c0,8.468-6.865,15.333-15.333,15.333H666c-8.468,0-15.333-6.865-15.333-15.333l0,0
		c0-8.469,6.865-15.333,15.333-15.333h32.667C707.135-262.666,714-255.802,714-247.333L714-247.333z"/>
</g>
<path fill="none" d="M-469-317c1.667,0.333,3.333,0.667,5,1"/>
</svg>
