<?xml version="1.0" encoding="utf-8"?>
<!-- Generator: Adobe Illustrator 16.0.4, SVG Export Plug-In . SVG Version: 6.00 Build 0)  -->
<!DOCTYPE svg PUBLIC "-//W3C//DTD SVG 1.1//EN" "http://www.w3.org/Graphics/SVG/1.1/DTD/svg11.dtd">
<svg version="1.1" id="Layer_1" xmlns="http://www.w3.org/2000/svg" xmlns:xlink="http://www.w3.org/1999/xlink" x="0px" y="0px"
	 width="500px" height="209.967px" viewBox="0 0 500 209.967" enable-background="new 0 0 500 209.967" xml:space="preserve">
<g>
	<path fill-rule="evenodd" clip-rule="evenodd" fill="#F0F0F0" d="M160.587,136.26c0,4.951,0.323,9.925-0.081,14.837
		c-0.484,5.892,3.507,15.024-7.037,15.187c-9.243,0.146-8.777-8.675-9.33-14.873c-1.954-21.893-3.389-43.83-4.927-65.758
		c-1.001-14.254-1.793-28.521-2.772-42.778c-0.404-5.861,0.016-12.062,6.74-13.229c16.119-2.799,32.447-6.856,48.24,2.026
		c23.007,12.945,27.522,37.736,6.827,53.755c-15.266,11.82-15.599,24.484-12.806,40.31c2.292,12.979,3.616,26.12,5.584,39.16
		c0.656,4.344,1.723,9.243,6.847,10.157c5.035,0.902,5.963-3.351,6.987-7.265c1.157-4.405,4.339-6.37,8.798-4.951
		c5.165,1.639,6.134,5.594,5.255,10.52c-1.868,10.484-9.205,14.695-18.666,15.496c-12.826,1.086-21.87-5.759-24.565-17.5
		c-3.671-15.997-4.851-32.561-7.315-48.849c-0.691-4.563,1.34-12.656-4.395-12.543c-8.154,0.165-4.479,8.066-4.324,13.111
		c0.136,4.396,0.401,8.791,0.607,13.183C160.364,136.26,160.477,136.26,160.587,136.26z M171.858,38.477
		c-14.875,0.271-21.809,4.104-18.454,17.127c1.079,4.195,0.824,8.724,1.228,13.1c0.751,8.136-1.441,20.185,5.163,22.995
		c8.125,3.458,16.969-5.192,24.335-10.421c8.552-6.064,13.66-14.845,9.708-25.741C189.605,43.861,179.692,39.537,171.858,38.477z"/>
	<path fill-rule="evenodd" clip-rule="evenodd" fill="#F0F0F0" d="M218.439,138.544c2.494-28.915,4.578-55.238,7.16-81.513
		c0.624-6.324,0.504-14.625,8.236-16.584c8.784-2.223,12.032,5.989,15.758,11.853c9.056,14.254,10.908,30.986,15.678,46.721
		c0.705,2.328,1.234,5.796,4.464,5.625c0.94-0.048,2.129-3.661,2.456-5.757c1.942-12.486,3.678-25.001,5.458-37.513
		c0.617-4.356,0.957-8.758,1.787-13.068c1.066-5.546,2.618-11.882,9.909-10.536c6.486,1.196,5.42,7.42,4.835,12.274
		c-2.699,22.387-5.644,44.745-8.342,67.133c-0.989,8.187-1.606,16.421-2.275,24.646c-0.465,5.679-1.118,11.968-7.64,13.121
		c-6.486,1.151-9.773-4.392-11.67-9.676c-6.315-17.601-12.239-35.337-18.425-52.987c-0.885-2.524-2.96-7.038-3.474-6.898
		c-3.743,1.015-3.668,4.875-4.085,7.919c-2.014,14.71-3.688,29.463-5.703,44.174c-0.798,5.837-3.542,11.832-10.035,10.872
		C215.841,147.358,218.582,140.539,218.439,138.544z"/>
	<path fill-rule="evenodd" clip-rule="evenodd" fill="#F0F0F0" d="M124.809,156.776c0.453,4.767-0.42,9.136-6.076,9.76
		c-5.441,0.604-7.988-3.391-8.821-7.938c-1.684-9.172-3.025-18.418-4.108-27.684c-0.775-6.645-0.268-14.278-10.068-13.477
		c-8.356,0.682-18.473-1.173-21.489,10.646c-2.304,9.036-4.23,18.186-6.961,27.089c-1.338,4.369-4.798,7.908-9.975,6.302
		c-4.505-1.396-4.641-5.403-3.785-9.572c8.522-41.384,16.875-82.797,25.551-124.147c1.183-5.628,1.742-13.113,9.531-13.64
		c7.81-0.53,8.844,6.725,11.2,12.198C117.741,67.957,119.922,112.623,124.809,156.776z M102.503,93.905
		c-2.508-10.592-4.864-21.22-7.646-31.738c-0.64-2.411-2.753-4.434-4.187-6.635c-1.231,2.201-3.119,4.276-3.587,6.628
		c-2.124,10.686-3.626,21.501-5.798,32.178c-1.483,7.296-2.182,13.042,8.325,12.541C98.208,106.469,103.476,103.897,102.503,93.905z
		"/>
	<path fill-rule="evenodd" clip-rule="evenodd" fill="#F0F0F0" d="M330.128,7.854c12.652,0.94,24.727,1.681,36.759,2.802
		c5.122,0.475,10.678,2.293,10.012,8.531c-0.627,5.883-6.347,4.612-10.643,4.689c-23.185,0.411-23.175,0.423-23.705,23.492
		c-0.837,36.359-5.074,72.336-12.158,107.993c-1.942,9.786-4.689,19.358-10.48,27.528c-6.861,9.683-16.55,14.488-28.553,12.766
		c-9.954-1.432-17.207-6.793-20.69-16.627c-1.552-4.376-2.656-8.652,2.204-11.654c4.767-2.941,8.271-0.931,11.107,3.241
		c3.917,5.76,6.984,14.056,16.036,10.669c8.349-3.122,11.761-11.118,13.622-19.456c5.395-24.196,7.653-48.829,9.744-73.459
		c1.487-17.528,1.917-35.149,3.71-52.637c1.147-11.191-1.984-16.965-14.01-15.734c-2.175,0.223-4.418,0.155-6.593-0.094
		c-5.103-0.588-13.409,1.577-13.286-5.63c0.14-8.013,8.623-6.271,14.389-6.381C315.287,7.744,322.992,7.854,330.128,7.854z"/>
	<path fill-rule="evenodd" clip-rule="evenodd" fill="#F0F0F0" d="M32.223,111.973c0,21.472,0.181,42.918-0.094,64.361
		c-0.104,7.97,2.889,11.033,10.821,9.618c10.279-1.833,20.595-3.481,30.938-4.903c4.5-0.617,9.555-0.106,10.799,5.106
		c1.338,5.614-3.716,7.708-7.835,8.797c-16.497,4.36-33.213,7.753-50.343,8.145c-13.055,0.301-12.412-9.877-13.416-18.506
		C9.27,151.744,10.13,118.724,9.38,85.753C9.031,70.384,7.812,55.035,6.985,39.675c-0.423-7.874-0.808-17.862,7.942-19.481
		c10.601-1.962,10.988,8.938,11.643,16.147C28.858,61.501,30.396,86.729,32.223,111.973z"/>
	<path fill-rule="evenodd" clip-rule="evenodd" fill="#F0F0F0" d="M469.454,50.429c1.1,0,2.275-0.252,3.29,0.039
		c8.189,2.346,23.628-4.872,23.191,7.262c-0.388,10.728-15.642,3.723-24.122,5.499c-8.015,1.681-19.003-4.934-20.899,11.014
		c-1.503,12.625,0.294,17.652,14.274,17.827c7.666,0.097,22.438-3.402,22.497,6.551c0.058,10.32-14.197,6.146-22.241,6.985
		c-15.229,1.594-25.264,17.613-18.719,31.052c2.204,4.527,6.279,3.774,9.896,4.11c5.472,0.504,11.011,0.32,16.473,0.902
		c3.781,0.403,8.454,1.104,8.422,6.082c-0.035,5.1-4.583,5.277-8.48,5.52c-0.549,0.036-1.102,0.036-1.654,0.036
		c-48.969-0.113-42.314,6.401-40.488-39.752c0.523-13.192,2.046-26.339,2.786-39.526c1.237-21.9,4.87-25.157,27.519-24
		c2.744,0.137,5.504,0.02,8.257,0.02C469.454,50.174,469.454,50.303,469.454,50.429z"/>
	<path fill-rule="evenodd" clip-rule="evenodd" fill="#F0F0F0" d="M359.737,108.511c1.083-12.476,2.495-30.042,4.176-47.585
		c0.985-10.284,5.711-16.293,17.29-14.816c10.921,1.393,21.983,1.71,32.878,3.238c4.143,0.579,9.343,2.733,7.655,8.543
		c-1.195,4.111-5.312,4.893-9.621,4.266c-5.436-0.792-11.023-0.679-16.411-1.687c-11.883-2.22-15.195,3.608-16.294,14.376
		c-1.254,12.273,6.205,11.249,14.197,12.295c7.956,1.041,22.251-3.794,22.06,7.057c-0.203,11.782-14.22,4.195-21.931,6.055
		c-5.959,1.435-14.634-2.613-16.66,6.435c-2.14,9.553-5.649,20.363-1.102,29.122c3.377,6.505,13.198,2.604,20.111,3.606
		c6.577,0.953,18.079-3.568,18.257,5.238c0.181,9.092-11.341,4.647-17.843,5.798c-0.537,0.098-1.103,0.014-1.652,0.02
		C349.412,150.922,358.956,152.965,359.737,108.511z"/>
</g>
</svg>
