<?xml version="1.0" encoding="utf-8"?>
<!-- Generator: Adobe Illustrator 16.0.4, SVG Export Plug-In . SVG Version: 6.00 Build 0)  -->
<!DOCTYPE svg PUBLIC "-//W3C//DTD SVG 1.1//EN" "http://www.w3.org/Graphics/SVG/1.1/DTD/svg11.dtd">
<svg version="1.1" id="Layer_1" xmlns="http://www.w3.org/2000/svg" xmlns:xlink="http://www.w3.org/1999/xlink" x="0px" y="0px"
	 width="350px" height="287px" viewBox="0 0 350 287" enable-background="new 0 0 350 287" xml:space="preserve">
<path fill="#565AA8" d="M-493.81,27.671H-751.05C-765.382,27.671-777,38.944-777,52.85v160.837c0,13.905,11.618,25.18,25.949,25.18
	h170.744v39.59l56.223-39.59h30.273c14.332,0,25.95-11.274,25.95-25.18V52.85C-467.859,38.944-479.478,27.671-493.81,27.671z
	 M-500.25,199.912h-247.247v-8h247.247V199.912z M-500.25,163.675h-247.247v-8h247.247V163.675z M-500.25,127.439h-247.247v-8
	h247.247V127.439z M-500.25,91.203h-247.247v-8h247.247V91.203z"/>
<g>
	<g>
		<rect x="-533" y="18.1" fill="#E24C91" width="71.334" height="71.333"/>
	</g>
	<g>
		
			<rect x="-533" y="18.099" transform="matrix(0.309 -0.9511 0.9511 0.309 -394.7839 -435.8406)" fill="#E24C91" width="71.333" height="71.334"/>
	</g>
	<g>
		
			<rect x="-533" y="18.099" transform="matrix(0.5878 -0.809 0.809 0.5878 -248.5045 -380.187)" fill="#E24C91" width="71.333" height="71.334"/>
	</g>
	<g>
		
			<rect x="-533" y="18.099" transform="matrix(0.809 -0.5878 0.5878 0.809 -126.5833 -282.0546)" fill="#E24C91" width="71.333" height="71.334"/>
	</g>
	<g>
		
			<rect x="-533" y="18.099" transform="matrix(0.9511 -0.309 0.309 0.9511 -40.9555 -151.052)" fill="#E24C91" width="71.333" height="71.334"/>
	</g>
	<g>
		<rect x="-533" y="18.1" fill="#E24C91" width="71.333" height="71.333"/>
	</g>
</g>
<path fill="#2D2D2D" d="M-280.396,27.817v13.818h-13.818v192.3h13.818v-13.817h13.817v13.817h-13.816v13.818h-27.104v-10.275h-0.001
	V14h13.286v13.818H-280.396z M-280.396,41.635v13.818h13.817V41.635H-280.396z M-266.578,55.453v13.818h13.818V55.453H-266.578z
	 M-252.76,69.271v13.818h13.818V69.271H-252.76z M-238.941,83.089v13.818h13.817V83.089H-238.941z M-225.124,96.907v13.818h13.818
	V96.907H-225.124z M-211.306,110.725v13.818h13.817v-13.818H-211.306z M-197.488,124.543v13.818h13.818v-13.818H-197.488z
	 M-183.67,138.361v13.818h13.818v-13.818H-183.67z M-169.852,152.179v13.818h13.817v-13.818H-169.852z M-156.034,178.93h-41.454
	h-13.817v13.818v13.641h13.817v-13.641h55.272v-12.934v-0.885v-12.933h-13.818V178.93z M-183.67,233.847v-27.458h-13.818v27.458
	H-183.67z M-169.852,261.305v-27.458h-13.818v27.458H-169.852z M-237.879,206.389v27.458h13.818v-27.458H-237.879z
	 M-224.061,233.847v27.458h13.817v-27.458H-224.061z M-210.243,275.125h26.573v-13.819h-26.573V275.125z M-238.941,192.482h-13.818
	v13.817h13.818V192.482z M-252.76,206.299h-13.818v13.818h13.818V206.299z"/>
<g>
	<path fill="#6CC393" d="M320,228.679c0,10.209-8.57,18.484-19.142,18.484H49.142C38.57,247.164,30,238.888,30,228.679V58.32
		c0-10.209,8.57-18.484,19.142-18.484h251.717C311.43,39.835,320,48.111,320,58.32V228.679z"/>
	<rect x="30" y="99" fill="#565AA8" width="290" height="106.574"/>
	<path fill="#6A7CBC" d="M218.891,109.857c23.827,23.826,23.828,62.457,0.001,86.284c-23.827,23.826-62.458,23.826-86.284-0.001
		L218.891,109.857z"/>
	<circle fill="none" stroke="#FFFFFF" stroke-width="16" stroke-miterlimit="10" cx="179.32" cy="153.064" r="61.012"/>
	<circle fill="#E24C91" cx="56.667" cy="63.667" r="15.333"/>
	<path fill="#FFFFFF" d="M310,63.667C310,72.134,303.135,79,294.667,79H262c-8.468,0-15.333-6.865-15.333-15.333l0,0
		c0-8.469,6.865-15.333,15.333-15.333h32.667C303.135,48.333,310,55.198,310,63.667L310,63.667z"/>
</g>
</svg>
