<?xml version="1.0" encoding="utf-8"?>
<!-- Generator: Adobe Illustrator 16.0.4, SVG Export Plug-In . SVG Version: 6.00 Build 0)  -->
<!DOCTYPE svg PUBLIC "-//W3C//DTD SVG 1.1//EN" "http://www.w3.org/Graphics/SVG/1.1/DTD/svg11.dtd">
<svg version="1.1" id="Layer_1" xmlns="http://www.w3.org/2000/svg" xmlns:xlink="http://www.w3.org/1999/xlink" x="0px" y="0px"
	 width="350px" height="287px" viewBox="0 0 350 287" enable-background="new 0 0 350 287" xml:space="preserve">
<path fill="#565AA8" d="M298.69-267.328H41.45c-14.332,0-25.949,11.272-25.949,25.179v140.837c0,13.905,11.618,25.18,25.949,25.18
	h170.744v39.59l56.223-39.59h30.273c14.332,0,25.95-11.274,25.95-25.18v-140.837C324.641-256.056,313.022-267.328,298.69-267.328z
	 M292.25-115.088H45.003v-8H292.25V-115.088z M292.25-141.324H45.003v-8H292.25V-141.324z M292.25-167.56H45.003v-8H292.25V-167.56z
	 M292.25-195.56H45.003v-8H292.25V-195.56z"/>
<g>
	<g>
		<rect x="259.5" y="-271.9" fill="#E24C91" width="71.334" height="71.333"/>
	</g>
	<g>
		
			<rect x="259.5" y="-271.9" transform="matrix(0.309 -0.9511 0.9511 0.309 428.6262 117.4869)" fill="#E24C91" width="71.333" height="71.334"/>
	</g>
	<g>
		
			<rect x="259.5" y="-271.9" transform="matrix(0.5878 -0.809 0.809 0.5878 312.7872 141.416)" fill="#E24C91" width="71.333" height="71.334"/>
	</g>
	<g>
		
			<rect x="259.5" y="-271.9" transform="matrix(0.809 -0.5878 0.5878 0.809 195.224 128.3774)" fill="#E24C91" width="71.333" height="71.334"/>
	</g>
	<g>
		
			<rect x="259.5" y="-271.9" transform="matrix(0.9511 -0.309 0.309 0.9511 87.4459 79.6489)" fill="#E24C91" width="71.333" height="71.334"/>
	</g>
	<g>
		<rect x="259.5" y="-271.9" fill="#E24C91" width="71.333" height="71.333"/>
	</g>
</g>
<path fill="#2D2D2D" d="M512.104-283.182v13.818h-13.818v192.3h13.818v-13.817h13.817v13.817h-13.816v13.818h-27.104v-10.275H485
	V-297h13.286v13.818H512.104z M512.104-269.364v13.818h13.817v-13.818H512.104z M525.922-255.546v13.818h13.818v-13.818H525.922z
	 M539.74-241.728v13.818h13.818v-13.818H539.74z M553.559-227.91v13.818h13.817v-13.818H553.559z M567.376-214.092v13.818h13.818
	v-13.818H567.376z M581.194-200.274v13.818h13.817v-13.818H581.194z M595.012-186.457v13.818h13.818v-13.818H595.012z
	 M608.83-172.639v13.818h13.818v-13.818H608.83z M622.648-158.821v13.818h13.817v-13.818H622.648z M636.466-132.069h-41.454h-13.817
	v13.818v13.641h13.817v-13.641h55.272v-12.934v-0.885v-12.933h-13.818V-132.069z M608.83-77.152v-27.458h-13.818v27.458H608.83z
	 M622.648-49.694v-27.458H608.83v27.458H622.648z M554.621-104.61v27.458h13.818v-27.458H554.621z M568.439-77.152v27.458h13.817
	v-27.458H568.439z M582.257-35.875h26.573v-13.819h-26.573V-35.875z M553.559-118.518H539.74v13.817h13.818V-118.518z M539.74-104.7
	h-13.818v13.818h13.818V-104.7z"/>
<path fill="#FFFFFF" d="M512.104,29.818v13.817h-13.818v192.3h13.818v-13.817h13.817v13.817h-13.816v13.818h-27.104v-10.275H485V16
	h13.286v13.818H512.104z M512.104,43.636v13.817h13.817V43.636H512.104z M525.922,57.453v13.818h13.818V57.453H525.922z
	 M539.74,71.271V85.09h13.818V71.271H539.74z M553.559,85.09v13.818h13.817V85.09H553.559z M567.376,98.908v13.817h13.818V98.908
	H567.376z M581.194,112.726v13.817h13.817v-13.817H581.194z M595.012,126.543v13.818h13.818v-13.818H595.012z M608.83,140.361
	v13.818h13.818v-13.818H608.83z M622.648,154.18v13.818h13.817V154.18H622.648z M636.466,180.931h-41.454h-13.817v13.818v13.641
	h13.817v-13.641h55.272v-12.934v-0.885v-12.933h-13.818V180.931z M608.83,235.848V208.39h-13.818v27.458H608.83z M622.648,263.306
	v-27.458H608.83v27.458H622.648z M554.621,208.39v27.458h13.818V208.39H554.621z M568.439,235.848v27.458h13.817v-27.458H568.439z
	 M582.257,277.125h26.573v-13.819h-26.573V277.125z M553.559,194.482H539.74V208.3h13.818V194.482z M539.74,208.3h-13.818v13.818
	h13.818V208.3z"/>
<g>
	<path fill="#6CC393" d="M1112.5-82.32c0,10.209-8.57,18.484-19.142,18.484H841.642c-10.571,0-19.142-8.275-19.142-18.484V-252.68
		c0-10.209,8.57-18.484,19.142-18.484h251.717c10.571,0,19.142,8.275,19.142,18.484V-82.32z"/>
	<rect x="822.5" y="-212" fill="#565AA8" width="290" height="106.574"/>
	<path fill="#6A7CBC" d="M1011.391-201.143c23.827,23.826,23.828,62.457,0.001,86.284c-23.827,23.826-62.458,23.826-86.284-0.001
		L1011.391-201.143z"/>
	<circle fill="none" stroke="#FFFFFF" stroke-width="16" stroke-miterlimit="10" cx="971.82" cy="-157.936" r="61.012"/>
	<circle fill="#E24C91" cx="849.167" cy="-247.333" r="15.333"/>
	<path fill="#FFFFFF" d="M1102.5-247.333c0,8.468-6.865,15.333-15.333,15.333H1054.5c-8.468,0-15.333-6.865-15.333-15.333l0,0
		c0-8.469,6.865-15.333,15.333-15.333h32.667C1095.635-262.666,1102.5-255.802,1102.5-247.333L1102.5-247.333z"/>
</g>
<path fill="none" d="M-80.5-317c1.667,0.333,3.333,0.667,5,1"/>
<path display="none" d="M1156.5,277c0,11.046-8.954,20-20,20h-338c-11.046,0-20-8.954-20-20V7c0-11.046,8.954-20,20-20h338
	c11.046,0,20,8.954,20,20V277z"/>
<g>
	<path fill="#FFFFFF" d="M1112.5,217.68c0,10.209-8.57,18.484-19.142,18.484H841.642c-10.571,0-19.142-8.275-19.142-18.484V47.32
		c0-10.209,8.57-18.484,19.142-18.484h251.717c10.571,0,19.142,8.275,19.142,18.484V217.68z"/>
	<rect x="822.5" y="88" width="290" height="106.574"/>
	<circle fill="none" stroke="#FFFFFF" stroke-width="16" stroke-miterlimit="10" cx="971.82" cy="142.064" r="61.012"/>
	<circle cx="849.167" cy="52.667" r="15.333"/>
	<path d="M1102.5,52.667c0,8.468-6.865,15.333-15.333,15.333H1054.5c-8.468,0-15.333-6.865-15.333-15.333l0,0
		c0-8.469,6.865-15.333,15.333-15.333h32.667C1095.635,37.334,1102.5,44.198,1102.5,52.667L1102.5,52.667z"/>
</g>
<rect x="-22.5" y="-6" display="none" width="388" height="301"/>
<path fill="#FFFFFF" d="M298.69,32.672H41.45c-14.332,0-25.949,11.272-25.949,25.179v140.837c0,13.905,11.618,25.18,25.949,25.18
	h170.744v39.59l56.224-39.59h30.273c14.332,0,25.95-11.274,25.95-25.18V57.851C324.641,43.944,313.022,32.672,298.69,32.672z
	 M292.25,184.912H45.003v-8H292.25V184.912z M292.25,158.676H45.003v-8H292.25V158.676z M292.25,132.439H45.003v-8H292.25V132.439z
	 M292.25,104.439H45.003v-8H292.25V104.439z"/>
<g>
	<g>
		<rect x="259.5" y="28.1" fill="#E24C91" width="71.334" height="71.334"/>
	</g>
	<g>
		
			<rect x="259.5" y="28.1" transform="matrix(0.309 -0.9511 0.9511 0.309 143.31 324.782)" fill="#E24C91" width="71.333" height="71.334"/>
	</g>
	<g>
		
			<rect x="259.5" y="28.1" transform="matrix(0.5878 -0.809 0.809 0.5878 70.0818 265.0787)" fill="#E24C91" width="71.333" height="71.334"/>
	</g>
	<g>
		
			<rect x="259.5" y="28.1" transform="matrix(0.809 -0.5878 0.5878 0.809 18.889 185.6698)" fill="#E24C91" width="71.333" height="71.334"/>
	</g>
	<g>
		
			<rect x="259.5" y="28.1" transform="matrix(0.9511 -0.309 0.309 0.9511 -5.2585 94.3318)" fill="#E24C91" width="71.333" height="71.333"/>
	</g>
	<g>
		<rect x="259.5" y="28.1" fill="#E24C91" width="71.333" height="71.334"/>
	</g>
</g>
</svg>
