<?xml version="1.0" encoding="utf-8"?>
<!-- Generator: Adobe Illustrator 16.0.4, SVG Export Plug-In . SVG Version: 6.00 Build 0)  -->
<!DOCTYPE svg PUBLIC "-//W3C//DTD SVG 1.1//EN" "http://www.w3.org/Graphics/SVG/1.1/DTD/svg11.dtd">
<svg version="1.1" id="Layer_1" xmlns="http://www.w3.org/2000/svg" xmlns:xlink="http://www.w3.org/1999/xlink" x="0px" y="0px"
	 width="350px" height="287px" viewBox="0 0 350 287" enable-background="new 0 0 350 287" xml:space="preserve">
<path fill="#FFFFFF" d="M298.689,32.672H41.45c-14.332,0-25.949,11.272-25.949,25.179v140.836c0,13.905,11.618,25.181,25.949,25.181
	h170.743v39.59l56.225-39.59h30.273c14.332,0,25.949-11.274,25.949-25.181V57.851C324.641,43.944,313.021,32.672,298.689,32.672z
	 M292.25,184.912H45.003v-8H292.25V184.912z M292.25,158.676H45.003v-8H292.25V158.676z M292.25,132.439H45.003v-8H292.25V132.439z
	 M292.25,104.439H45.003v-8H292.25V104.439z"/>
<path fill="#565AA8" d="M298.689-267.328H41.45c-14.332,0-25.949,11.272-25.949,25.179v140.837c0,13.905,11.618,25.18,25.949,25.18
	h170.743v39.59l56.224-39.59h30.272c14.332,0,25.951-11.274,25.951-25.18v-140.837C324.641-256.056,313.021-267.328,298.689-267.328
	z M292.25-115.088H45.003v-8H292.25V-115.088z M292.25-141.324H45.003v-8H292.25V-141.324z M292.25-167.56H45.003v-8H292.25V-167.56
	z M292.25-195.56H45.003v-8H292.25V-195.56z"/>
<g>
	<g>
		<rect x="259.5" y="-271.9" fill="#E24C91" width="71.334" height="71.333"/>
	</g>
	<g>
		
			<rect x="259.483" y="-271.91" transform="matrix(-0.309 0.9511 -0.9511 -0.309 161.6734 -589.9484)" fill="#E24C91" width="71.336" height="71.337"/>
	</g>
	<g>
		
			<rect x="259.507" y="-271.899" transform="matrix(-0.5878 0.809 -0.809 -0.5878 277.5652 -613.8855)" fill="#E24C91" width="71.333" height="71.334"/>
	</g>
	<g>
		
			<rect x="259.49" y="-271.901" transform="matrix(-0.809 0.5878 -0.5878 -0.809 395.079 -600.8419)" fill="#E24C91" width="71.332" height="71.333"/>
	</g>
	<g>
		
			<rect x="259.515" y="-271.907" transform="matrix(-0.9511 0.309 -0.309 -0.9511 502.9259 -552.126)" fill="#E24C91" width="71.336" height="71.337"/>
	</g>
	<g>
		<rect x="259.5" y="-271.9" fill="#E24C91" width="71.333" height="71.333"/>
	</g>
</g>
<path fill="#2D2D2D" d="M512.104-283.182v13.818h-13.817v192.3h13.817v-13.817h13.817v13.817h-13.815v13.818h-27.104v-10.275H485
	V-297h13.286v13.818H512.104z M512.104-269.364v13.818h13.817v-13.818H512.104z M525.922-255.546v13.818h13.818v-13.818H525.922z
	 M539.74-241.728v13.818h13.817v-13.818H539.74z M553.559-227.91v13.818h13.817v-13.818H553.559z M567.376-214.092v13.818h13.818
	v-13.818H567.376z M581.194-200.274v13.818h13.816v-13.818H581.194z M595.012-186.457v13.818h13.818v-13.818H595.012z
	 M608.83-172.639v13.818h13.818v-13.818H608.83z M622.648-158.821v13.818h13.816v-13.818H622.648z M636.466-132.069h-41.454h-13.816
	v13.818v13.641h13.816v-13.641h55.272v-12.934v-0.885v-12.933h-13.818V-132.069z M608.83-77.152v-27.458h-13.818v27.458H608.83z
	 M622.648-49.694v-27.458H608.83v27.458H622.648z M554.621-104.61v27.458h13.818v-27.458H554.621z M568.439-77.152v27.458h13.816
	v-27.458H568.439z M582.257-35.875h26.573v-13.819h-26.573V-35.875z M553.559-118.518H539.74v13.817h13.817L553.559-118.518
	L553.559-118.518z M539.74-104.7h-13.818v13.818h13.818V-104.7z"/>
<path fill="#FFFFFF" d="M512.104,29.818v13.817h-13.817v192.301h13.817v-13.817h13.817v13.817h-13.815v13.817h-27.104v-10.274H485
	V16h13.286v13.818H512.104z M512.104,43.636v13.817h13.817V43.636H512.104z M525.922,57.453v13.818h13.818V57.453H525.922z
	 M539.74,71.271V85.09h13.817V71.271H539.74z M553.559,85.09v13.818h13.817V85.09H553.559z M567.376,98.908v13.817h13.818V98.908
	H567.376z M581.194,112.726v13.817h13.816v-13.817H581.194z M595.012,126.543v13.818h13.818v-13.818H595.012z M608.83,140.361
	v13.819h13.818v-13.819H608.83z M622.648,154.18v13.818h13.816V154.18H622.648z M636.466,180.932h-41.454h-13.816v13.817v13.642
	h13.816v-13.642h55.272v-12.935v-0.885v-12.933h-13.818V180.932z M608.83,235.848v-27.457h-13.818v27.457H608.83L608.83,235.848z
	 M622.648,263.307v-27.459H608.83v27.459H622.648z M554.621,208.391v27.457h13.818v-27.457H554.621z M568.439,235.848v27.459h13.816
	v-27.459H568.439L568.439,235.848z M582.257,277.125h26.573v-13.818h-26.573V277.125z M553.559,194.482H539.74V208.3h13.817
	L553.559,194.482L553.559,194.482z M539.74,208.3h-13.818v13.818h13.818V208.3z"/>
<g>
	<g>
		<path fill="#6CC393" d="M1018.908-208.222l93.593,93.593V-252.68c0-10.209-8.571-18.484-19.142-18.484H841.642
			c-10.571,0-19.142,8.275-19.142,18.484v170.36c0,10.209,8.571,18.484,19.142,18.484h126.49l-46.805-46.805L1018.908-208.222z"/>
		<path fill="#6CC393" d="M1112.5-82.32L1112.5-82.32l0.001-32.309l-93.593-93.593l-97.581,97.581l46.805,46.805h125.227
			C1103.93-63.836,1112.5-72.111,1112.5-82.32z"/>
	</g>
	<rect x="822.5" y="-212" fill="#565AA8" width="290" height="106.574"/>
	<path opacity="0.3" d="M1112.5-82.32L1112.5-82.32l0.001-32.309l-93.593-93.593l-97.581,97.581l46.805,46.805h125.227
		C1103.93-63.836,1112.5-72.111,1112.5-82.32z"/>
	<path fill="#6A7CBC" d="M932.979-116.99c-23.826-23.826-23.828-62.457,0-86.284c23.826-23.826,62.457-23.826,86.283,0.001
		L932.979-116.99z"/>
	<circle fill="none" stroke="#FFFFFF" stroke-width="16" stroke-miterlimit="10" cx="971.82" cy="-157.936" r="61.012"/>
	<circle fill="#E24C91" cx="849.167" cy="-247.333" r="15.333"/>
	<path fill="#FFFFFF" d="M1102.5-247.333c0,8.468-6.865,15.333-15.333,15.333H1054.5c-8.468,0-15.333-6.865-15.333-15.333l0,0
		c0-8.469,6.865-15.333,15.333-15.333h32.667C1095.635-262.666,1102.5-255.802,1102.5-247.333L1102.5-247.333z"/>
</g>
<path fill="none" d="M-80.5-317c1.667,0.333,3.333,0.667,5,1"/>
<path display="none" d="M1156.5,277c0,11.046-8.954,20-20,20h-338c-11.046,0-20-8.954-20-20V7c0-11.046,8.954-20,20-20h338
	c11.046,0,20,8.954,20,20V277z"/>
<g>
	<path fill="#FFFFFF" d="M1112.5,217.68c0,10.209-8.57,18.484-19.142,18.484H841.642c-10.57,0-19.142-8.275-19.142-18.484V47.32
		c0-10.209,8.57-18.484,19.142-18.484h251.718c10.57,0,19.142,8.275,19.142,18.484L1112.5,217.68L1112.5,217.68z"/>
	<rect x="822.5" y="88" width="290" height="106.574"/>
	<circle fill="none" stroke="#FFFFFF" stroke-width="16" stroke-miterlimit="10" cx="971.82" cy="142.064" r="61.012"/>
	<circle cx="849.167" cy="52.667" r="15.333"/>
	<path d="M1102.5,52.667c0,8.468-6.865,15.333-15.333,15.333H1054.5c-8.468,0-15.333-6.865-15.333-15.333l0,0
		c0-8.469,6.865-15.333,15.333-15.333h32.667C1095.635,37.334,1102.5,44.198,1102.5,52.667L1102.5,52.667z"/>
</g>
<path opacity="0.3" d="M1112.5,217.68L1112.5,217.68l0.001-32.309l-93.593-93.593l-97.581,97.581l46.805,46.805h125.227
	C1103.93,236.164,1112.5,227.889,1112.5,217.68z"/>
<rect x="-22.5" y="-6" display="none" width="388" height="301"/>
<path fill="#FFFFFF" d="M298.689,32.672H41.45c-14.332,0-25.949,11.272-25.949,25.179v140.836c0,13.905,11.618,25.181,25.949,25.181
	h170.743v39.59l56.225-39.59h30.273c14.332,0,25.949-11.274,25.949-25.181V57.851C324.641,43.944,313.021,32.672,298.689,32.672z
	 M292.25,184.912H45.003v-8H292.25V184.912z M292.25,158.676H45.003v-8H292.25V158.676z M292.25,132.439H45.003v-8H292.25V132.439z
	 M292.25,104.439H45.003v-8H292.25V104.439z"/>
<g>
	<g>
		<rect x="259.5" y="28.1" fill="#E24C91" width="71.334" height="71.333"/>
	</g>
	<g>
		
			<rect x="259.497" y="28.085" transform="matrix(-0.309 0.9511 -0.9511 -0.309 447.005 -197.2669)" fill="#E24C91" width="71.336" height="71.337"/>
	</g>
	<g>
		
			<rect x="259.505" y="28.106" transform="matrix(-0.5878 0.809 -0.809 -0.5878 520.2637 -137.5379)" fill="#E24C91" width="71.332" height="71.334"/>
	</g>
	<g>
		
			<rect x="259.497" y="28.095" transform="matrix(-0.809 0.5878 -0.5878 -0.809 571.4305 -58.1528)" fill="#E24C91" width="71.332" height="71.334"/>
	</g>
	<g>
		
			<rect x="259.51" y="28.106" transform="matrix(-0.9511 0.309 -0.309 -0.9511 595.6166 33.2208)" fill="#E24C91" width="71.336" height="71.336"/>
	</g>
	<g>
		<rect x="259.5" y="28.1" fill="#E24C91" width="71.333" height="71.334"/>
	</g>
</g>
</svg>
