<?xml version="1.0" encoding="utf-8"?>
<!-- Generator: Adobe Illustrator 16.0.4, SVG Export Plug-In . SVG Version: 6.00 Build 0)  -->
<!DOCTYPE svg PUBLIC "-//W3C//DTD SVG 1.1//EN" "http://www.w3.org/Graphics/SVG/1.1/DTD/svg11.dtd">
<svg version="1.1" id="Layer_1" xmlns="http://www.w3.org/2000/svg" xmlns:xlink="http://www.w3.org/1999/xlink" x="0px" y="0px"
	 width="350px" height="287px" viewBox="0 0 350 287" enable-background="new 0 0 350 287" xml:space="preserve">
<path fill="#565AA8" d="M298.69,43.671H41.45C27.118,43.671,15.5,54.944,15.5,68.85v140.837c0,13.905,11.618,25.18,25.949,25.18
	h170.744v39.59l56.223-39.59h30.273c14.332,0,25.95-11.274,25.95-25.18V68.85C324.641,54.944,313.022,43.671,298.69,43.671z
	 M292.25,195.912H45.003v-8H292.25V195.912z M292.25,169.675H45.003v-8H292.25V169.675z M292.25,143.439H45.003v-8H292.25V143.439z
	 M292.25,115.439H45.003v-8H292.25V115.439z"/>
<g>
	<g>
		<rect x="259.5" y="39.1" fill="#E24C91" width="71.334" height="71.333"/>
	</g>
	<g>
		
			<rect x="259.5" y="39.099" transform="matrix(0.309 -0.9511 0.9511 0.309 132.8481 332.3823)" fill="#E24C91" width="71.333" height="71.334"/>
	</g>
	<g>
		
			<rect x="259.5" y="39.099" transform="matrix(0.5878 -0.809 0.809 0.5878 61.184 269.6136)" fill="#E24C91" width="71.333" height="71.334"/>
	</g>
	<g>
		
			<rect x="259.5" y="39.099" transform="matrix(0.809 -0.5878 0.5878 0.809 12.4246 187.7719)" fill="#E24C91" width="71.333" height="71.334"/>
	</g>
	<g>
		
			<rect x="259.5" y="39.099" transform="matrix(0.9511 -0.309 0.309 0.9511 -8.6576 94.8701)" fill="#E24C91" width="71.333" height="71.334"/>
	</g>
	<g>
		<rect x="259.5" y="39.1" fill="#E24C91" width="71.333" height="71.333"/>
	</g>
</g>
<path fill="#2D2D2D" d="M512.104,27.817v13.818h-13.818v192.3h13.818v-13.817h13.817v13.817h-13.816v13.818h-27.104v-10.275H485V14
	h13.286v13.818H512.104z M512.104,41.635v13.818h13.817V41.635H512.104z M525.922,55.453v13.818h13.818V55.453H525.922z
	 M539.74,69.271v13.818h13.818V69.271H539.74z M553.559,83.089v13.818h13.817V83.089H553.559z M567.376,96.907v13.818h13.818V96.907
	H567.376z M581.194,110.725v13.818h13.817v-13.818H581.194z M595.012,124.543v13.818h13.818v-13.818H595.012z M608.83,138.361
	v13.818h13.818v-13.818H608.83z M622.648,152.179v13.818h13.817v-13.818H622.648z M636.466,178.93h-41.454h-13.817v13.818v13.641
	h13.817v-13.641h55.272v-12.934v-0.885v-12.933h-13.818V178.93z M608.83,233.847v-27.458h-13.818v27.458H608.83z M622.648,261.305
	v-27.458H608.83v27.458H622.648z M554.621,206.389v27.458h13.818v-27.458H554.621z M568.439,233.847v27.458h13.817v-27.458H568.439z
	 M582.257,275.125h26.573v-13.819h-26.573V275.125z M553.559,192.482H539.74v13.817h13.818V192.482z M539.74,206.299h-13.818v13.818
	h13.818V206.299z"/>
<g>
	<path fill="#6CC393" d="M1112.5,228.679c0,10.209-8.57,18.484-19.142,18.484H841.642c-10.571,0-19.142-8.275-19.142-18.484V58.32
		c0-10.209,8.57-18.484,19.142-18.484h251.717c10.571,0,19.142,8.275,19.142,18.484V228.679z"/>
	<rect x="822.5" y="99" fill="#565AA8" width="290" height="106.574"/>
	<path fill="#6A7CBC" d="M1011.391,109.857c23.827,23.826,23.828,62.457,0.001,86.284c-23.827,23.826-62.458,23.826-86.284-0.001
		L1011.391,109.857z"/>
	<circle fill="none" stroke="#FFFFFF" stroke-width="16" stroke-miterlimit="10" cx="971.82" cy="153.064" r="61.012"/>
	<circle fill="#E24C91" cx="849.167" cy="63.667" r="15.333"/>
	<path fill="#FFFFFF" d="M1102.5,63.667c0,8.468-6.865,15.333-15.333,15.333H1054.5c-8.468,0-15.333-6.865-15.333-15.333l0,0
		c0-8.469,6.865-15.333,15.333-15.333h32.667C1095.635,48.333,1102.5,55.198,1102.5,63.667L1102.5,63.667z"/>
</g>
<path fill="none" d="M-80.5-6c1.667,0.333,3.333,0.667,5,1"/>
</svg>
